<svg width="64" height="64" viewBox="0 0 64 64" fill="none" xmlns="http://www.w3.org/2000/svg">
<path d="M42 32C39.43 32 36.945 30.8525 35 28.77C33.1088 26.7388 31.9538 24.03 31.75 21.145C31.5325 18.0675 32.4713 15.2375 34.3925 13.175C36.3138 11.1125 39 10 42 10C44.9788 10 47.6725 11.1325 49.5875 13.19C51.5213 15.2675 52.4625 18.0925 52.245 21.1437C52.0363 24.0325 50.8825 26.74 48.995 28.7687C47.055 30.8525 44.5713 32 42 32ZM58.4788 54H25.5225C24.9926 54.0028 24.4692 53.8841 23.9924 53.6528C23.5157 53.4216 23.0983 53.0841 22.7725 52.6662C22.4269 52.2133 22.1882 51.688 22.0743 51.1297C21.9605 50.5714 21.9744 49.9946 22.115 49.4425C23.1675 45.2163 25.775 41.7112 29.655 39.3075C33.0988 37.175 37.4825 36 42 36C46.6063 36 50.875 37.125 54.3388 39.2562C58.2275 41.6475 60.8388 45.1725 61.8863 49.45C62.0252 50.0025 62.0375 50.5793 61.9224 51.1373C61.8072 51.6953 61.5676 52.2201 61.2213 52.6725C60.8958 53.0884 60.4794 53.4243 60.004 53.6544C59.5286 53.8845 59.0069 54.0027 58.4788 54ZM18.375 32.5C13.9763 32.5 10.1088 28.41 9.75 23.3838C9.5725 20.8088 10.375 18.4275 12 16.6812C13.6075 14.9525 15.875 14 18.375 14C20.875 14 23.125 14.9575 24.7413 16.6963C26.3788 18.4563 27.1788 20.8325 26.9913 23.3862C26.6325 28.4112 22.7663 32.5 18.375 32.5ZM26.5825 36.4313C24.3838 35.3563 21.53 34.8187 18.3763 34.8187C14.6938 34.8187 11.1175 35.7788 8.305 37.5213C5.11625 39.5 2.97125 42.3813 2.105 45.86C1.97823 46.3604 1.96624 46.8829 2.06993 47.3886C2.17361 47.8942 2.39029 48.3699 2.70375 48.78C3.00119 49.1618 3.38223 49.4704 3.81759 49.6819C4.25294 49.8934 4.731 50.0022 5.215 50H19.09C19.3242 50 19.5509 49.9177 19.7307 49.7677C19.9105 49.6176 20.0319 49.4092 20.0738 49.1787C20.0875 49.1 20.105 49.0212 20.125 48.9437C21.185 44.6862 23.6688 41.0888 27.3388 38.4663C27.4737 38.369 27.5823 38.2395 27.6546 38.0896C27.7269 37.9398 27.7607 37.7742 27.7529 37.608C27.7451 37.4418 27.6959 37.2802 27.6098 37.1378C27.5238 36.9954 27.4035 36.8767 27.26 36.7925C27.0638 36.6775 26.8388 36.5563 26.5825 36.4313Z" fill="#00B3B3"/>
</svg>
