<svg width="64" height="64" viewBox="0 0 64 64" fill="none" xmlns="http://www.w3.org/2000/svg">
<path d="M22.1966 3.28564V22.9462C22.1966 26.3748 23.8034 28.0091 27.232 28.0091H46.6252V52.3302C46.6252 57.9016 43.8663 60.7142 38.3212 60.7142H9.87544C4.35658 60.7142 1.57144 57.9291 1.57144 52.3302V11.6959C1.57144 6.1245 4.35658 3.28564 9.8743 3.28564H22.1966ZM36.0983 34.0365C35.886 33.8242 35.634 33.6557 35.3566 33.5408C35.0793 33.4259 34.782 33.3667 34.4817 33.3667C34.1815 33.3667 33.8842 33.4259 33.6068 33.5408C33.3294 33.6557 33.0774 33.8242 32.8652 34.0365L20.5714 46.3314L18.88 47.8091L17.3394 46.3314L13.0446 42.0376C12.6135 41.6213 12.0361 41.3909 11.4368 41.3961C10.8375 41.4013 10.2642 41.6417 9.84043 42.0655C9.41664 42.4893 9.17625 43.0626 9.17104 43.6619C9.16583 44.2612 9.39622 44.8386 9.81258 45.2696L17.3394 52.7965C17.7681 53.225 18.3494 53.4657 18.9554 53.4657C19.5615 53.4657 20.1428 53.225 20.5714 52.7965L36.0983 37.2685C36.5268 36.8399 36.7675 36.2586 36.7675 35.6525C36.7675 35.0464 36.5268 34.4651 36.0983 34.0365ZM25.8389 3.57936C26.9646 3.76793 28.0892 4.54507 29.3212 5.83079L44.1074 20.8571C45.3657 22.1691 46.1417 23.2411 46.3303 24.3394H27.3132C26.3474 24.3394 25.8389 23.8571 25.8389 22.8925V3.57936Z" fill="#00B3B3"/>
</svg>
