<svg width="64" height="64" viewBox="0 0 64 64" fill="none" xmlns="http://www.w3.org/2000/svg">
<path d="M18.56 39.0402V19.2002H6.4C2.88 19.2002 0 22.0802 0 25.6002V44.8002C0 48.3202 2.88 51.2002 6.4 51.2002H9.6V60.8002L19.2 51.2002H35.2C38.72 51.2002 41.6 48.3202 41.6 44.8002V38.9762C41.3897 39.0213 41.1751 39.0439 40.96 39.0434H18.56V39.0402ZM57.6 3.2002H28.8C25.28 3.2002 22.4 6.08019 22.4 9.60019V35.2002H44.8L54.4 44.8002V35.2002H57.6C61.12 35.2002 64 32.3234 64 28.8002V9.60019C64 6.08019 61.12 3.2002 57.6 3.2002Z" fill="#00B3B3"/>
</svg>
