<svg width="64" height="64" viewBox="0 0 64 64" fill="none" xmlns="http://www.w3.org/2000/svg">
<path d="M21.3333 29.3333C24.1623 29.3333 26.8754 28.2095 28.8758 26.2091C30.8762 24.2087 32 21.4956 32 18.6667C32 15.8377 30.8762 13.1246 28.8758 11.1242C26.8754 9.12381 24.1623 8 21.3333 8C18.5044 8 15.7912 9.12381 13.7909 11.1242C11.7905 13.1246 10.6667 15.8377 10.6667 18.6667C10.6667 21.4956 11.7905 24.2087 13.7909 26.2091C15.7912 28.2095 18.5044 29.3333 21.3333 29.3333ZM45.3333 29.3333C47.4551 29.3333 49.4899 28.4905 50.9902 26.9902C52.4905 25.4899 53.3333 23.4551 53.3333 21.3333C53.3333 19.2116 52.4905 17.1768 50.9902 15.6765C49.4899 14.1762 47.4551 13.3333 45.3333 13.3333C43.2116 13.3333 41.1768 14.1762 39.6765 15.6765C38.1762 17.1768 37.3333 19.2116 37.3333 21.3333C37.3333 23.4551 38.1762 25.4899 39.6765 26.9902C41.1768 28.4905 43.2116 29.3333 45.3333 29.3333ZM9 33.3333C7.67392 33.3333 6.40215 33.8601 5.46447 34.7978C4.52678 35.7355 4 37.0072 4 38.3333V40C4 40 4 52 21.3333 52C24.8133 52 27.5933 51.516 29.816 50.744C29.4946 49.4087 29.3326 48.0401 29.3333 46.6667C29.3308 44.19 29.8604 41.7416 30.8861 39.4873C31.9118 37.2329 33.4098 35.2252 35.2787 33.6C34.772 33.4267 34.2307 33.3333 33.6667 33.3333H9ZM61.3333 46.6667C61.3333 54.7667 54.7667 61.3333 46.6667 61.3333C38.5667 61.3333 32 54.7667 32 46.6667C32 38.5667 38.5667 32 46.6667 32C54.7667 32 61.3333 38.5667 61.3333 46.6667ZM48.2533 37.868C48.1562 37.5219 47.9486 37.2171 47.6621 37C47.3757 36.7829 47.0261 36.6654 46.6667 36.6654C46.3072 36.6654 45.9577 36.7829 45.6712 37C45.3848 37.2171 45.1771 37.5219 45.08 37.868L43.488 42.9747H38.3387C36.7213 42.9747 36.0507 45.1307 37.3573 46.1213L41.524 49.276L39.932 54.3827C39.4333 55.984 41.192 57.316 42.5 56.3267L46.6667 53.1707L50.8333 56.3267C52.14 57.3173 53.9 55.984 53.4 54.3827L51.8093 49.276L55.976 46.12C57.2827 45.1307 56.612 42.9733 54.9947 42.9733H49.8453L48.2533 37.868Z" fill="#00B3B3"/>
</svg>
