<svg width="64" height="64" viewBox="0 0 64 64" fill="none" xmlns="http://www.w3.org/2000/svg">
<path d="M5.33332 29.3332L10.8 29.5999C11.1231 26.6811 12.0483 23.8611 13.5171 21.3182C14.9859 18.7752 16.9664 16.5648 19.3333 14.8265L16.3467 10.2399C15.6267 8.95987 16 7.3332 17.3333 6.58654C18.6667 5.86654 20.24 6.2932 20.9867 7.5732L23.4667 12.4265C26.1623 11.2676 29.0658 10.6699 32 10.6699C34.9342 10.6699 37.8377 11.2676 40.5333 12.4265L43.0133 7.5732C43.76 6.2932 45.3333 5.86654 46.6667 6.58654C48 7.3332 48.3733 8.95987 47.6533 10.2399L44.6667 14.8265C47.0336 16.5648 49.0141 18.7752 50.4829 21.3182C51.9517 23.8611 52.8769 26.6811 53.2 29.5999L58.6667 29.3332C59.3739 29.3332 60.0522 29.6142 60.5523 30.1143C61.0524 30.6143 61.3333 31.2926 61.3333 31.9999C61.3333 32.7071 61.0524 33.3854 60.5523 33.8855C60.0522 34.3856 59.3739 34.6665 58.6667 34.6665L53.2 34.3999C52.8769 37.3187 51.9517 40.1387 50.4829 42.6816C49.0141 45.2245 47.0336 47.435 44.6667 49.1732L47.6533 53.7599C48.3733 55.0399 48 56.6665 46.6667 57.4132C45.3333 58.1332 43.76 57.7065 43.0133 56.4265L40.5333 51.5732C37.8377 52.7321 34.9342 53.3298 32 53.3298C29.0658 53.3298 26.1623 52.7321 23.4667 51.5732L20.9867 56.4265C20.24 57.7065 18.6667 58.1332 17.3333 57.4132C16 56.6665 15.6267 55.0399 16.3467 53.7599L19.3333 49.1732C16.9664 47.435 14.9859 45.2245 13.5171 42.6816C12.0483 40.1387 11.1231 37.3187 10.8 34.3999L5.33332 34.6665C4.62608 34.6665 3.9478 34.3856 3.4477 33.8855C2.94761 33.3854 2.66666 32.7071 2.66666 31.9999C2.66666 31.2926 2.94761 30.6143 3.4477 30.1143C3.9478 29.6142 4.62608 29.3332 5.33332 29.3332ZM24.1867 30.2665C24.5333 28.6399 25.4133 27.1999 26.6667 26.1065L22.24 19.3332C18.8943 21.901 16.6993 25.6872 16.1333 29.8665L24.1867 30.2665ZM32 23.9999C32.8533 23.9999 33.6533 24.1332 34.4 24.3732L38.08 17.1999C36.2133 16.4265 34.16 15.9999 32 15.9999C29.84 15.9999 27.7867 16.4265 25.92 17.1999L29.6 24.3732C30.3467 24.1332 31.1467 23.9999 32 23.9999ZM39.8133 30.2665L47.8667 29.8665C47.3007 25.6872 45.1057 21.901 41.76 19.3332L37.3333 26.1065C38.5867 27.1999 39.4667 28.6399 39.8133 30.2665ZM39.8133 33.7332C39.4667 35.3599 38.5867 36.7999 37.3333 37.8932L41.76 44.6665C45.1057 42.0987 47.3007 38.3125 47.8667 34.1332L39.8133 33.7332ZM32 39.9999C31.1467 39.9999 30.3467 39.8665 29.5733 39.6265L25.92 46.7999C27.7867 47.5732 29.84 47.9999 32 47.9999C34.16 47.9999 36.2133 47.5732 38.08 46.7999L34.4267 39.6265C33.6533 39.8665 32.8533 39.9999 32 39.9999ZM24.1867 33.7332L16.1333 34.1332C16.72 38.3999 18.96 42.1599 22.24 44.6665L26.6667 37.8932C25.4133 36.7999 24.5333 35.3599 24.1867 33.7332Z" fill="#00B3B3"/>
</svg>
