<svg width="64" height="64" viewBox="0 0 64 64" fill="none" xmlns="http://www.w3.org/2000/svg">
<g clip-path="url(#clip0_73_14)">
<path fill-rule="evenodd" clip-rule="evenodd" d="M37.896 47.4028C39.2823 46.7097 40.803 46.3271 42.3522 46.2815C43.9015 46.2359 45.442 46.5285 46.8667 47.1388L47.4374 47.4055L54.5254 50.9468C55.1342 51.2508 55.6038 51.7761 55.838 52.415C56.0721 53.054 56.0532 53.7583 55.7849 54.3837C55.5167 55.0092 55.0195 55.5084 54.3952 55.7791C53.7708 56.0499 53.0666 56.0717 52.4267 55.8402L52.1414 55.7175L45.0507 52.1735C44.3858 51.8411 43.6587 51.6513 42.9161 51.6164C42.1735 51.5815 41.4319 51.7022 40.7387 51.9708L40.28 52.1735L36.7707 53.9308C35.3838 54.6239 33.8626 55.0063 32.3129 55.0515C30.7631 55.0966 29.2222 54.8034 27.7974 54.1922L27.2294 53.9308L23.7174 52.1735C23.0524 51.8411 22.3254 51.6513 21.5828 51.6164C20.8402 51.5815 20.0985 51.7022 19.4054 51.9708L18.9467 52.1735L11.8587 55.7202C11.2498 56.0281 10.546 56.0909 9.89214 55.8956C9.23832 55.7003 8.68424 55.2618 8.34393 54.6704C8.00362 54.079 7.90298 53.3796 8.06273 52.7162C8.22248 52.0528 8.63046 51.4759 9.20269 51.1042L9.47469 50.9468L16.5627 47.4028C17.949 46.7097 19.4697 46.3271 21.0189 46.2815C22.5681 46.2359 24.1087 46.5285 25.5334 47.1388L26.104 47.4055L29.6134 49.1602C30.2786 49.493 31.0062 49.6829 31.7493 49.7178C32.4923 49.7528 33.2345 49.6318 33.928 49.3628L34.384 49.1602L37.896 47.4028ZM34.6667 5.3335C35.3739 5.3335 36.0522 5.61445 36.5523 6.11454C37.0524 6.61464 37.3334 7.29292 37.3334 8.00016V11.5202L46.2107 12.9975C47.4555 13.2057 48.5861 13.8487 49.4015 14.8121C50.2169 15.7754 50.6643 16.9967 50.664 18.2588V27.4108L56.1574 29.2402C56.5949 29.3861 56.9973 29.6213 57.3393 29.9308C57.6812 30.2402 57.9552 30.6173 58.144 31.0381C58.3327 31.459 58.432 31.9144 58.4357 32.3756C58.4394 32.8368 58.3474 33.2937 58.1654 33.7175L52.3814 47.2108L47.4374 44.7362C45.9561 43.9955 44.3228 43.6099 42.6667 43.6099C41.0106 43.6099 39.3773 43.9955 37.896 44.7362L34.384 46.4935C33.6434 46.8638 32.8267 47.0566 31.9987 47.0566C31.1706 47.0566 30.354 46.8638 29.6134 46.4935L26.104 44.7362C24.6228 43.9955 22.9895 43.6099 21.3334 43.6099C19.6773 43.6099 18.0439 43.9955 16.5627 44.7362L13.176 46.4322L6.08803 34.0295C5.84336 33.6013 5.69675 33.1242 5.65877 32.6325C5.62078 32.1408 5.69238 31.6468 5.86839 31.1861C6.0444 30.7254 6.32043 30.3095 6.6766 29.9684C7.03276 29.6273 7.46018 29.3695 7.92803 29.2135L13.3334 27.4108V18.2588C13.3331 16.9967 13.7804 15.7754 14.5958 14.8121C15.4113 13.8487 16.5419 13.2057 17.7867 12.9975L26.6667 11.5202V8.00016C26.6667 7.29292 26.9476 6.61464 27.4477 6.11454C27.9478 5.61445 28.6261 5.3335 29.3334 5.3335H34.6667ZM32 16.0375L18.6667 18.2588V25.6348L30.312 21.7522C31.4069 21.3872 32.5905 21.3872 33.6854 21.7522L45.3334 25.6348V18.2588L32 16.0375Z" fill="#00B3B3"/>
</g>
<defs>
<clipPath id="clip0_73_14">
<rect width="64" height="64" fill="white"/>
</clipPath>
</defs>
</svg>
