<svg width="64" height="64" viewBox="0 0 64 64" fill="none" xmlns="http://www.w3.org/2000/svg">
<g clip-path="url(#clip0_75_26)">
<path d="M45.3333 15C45.3333 21.825 37.2111 33.9875 33.6444 39C32.7889 40.2 31.2 40.2 30.3556 39C26.7889 33.9875 18.6667 21.825 18.6667 15C18.6667 6.7125 24.6333 0 32 0C39.3667 0 45.3333 6.7125 45.3333 15ZM46.2222 25.05C46.6111 24.1875 46.9667 23.325 47.2889 22.475C47.3444 22.325 47.4 22.1625 47.4556 22.0125L60.3444 16.2125C62.1 15.425 64 16.875 64 19V52.85C64 54.075 63.3333 55.175 62.3222 55.6375L46.2222 62.875V25.05ZM15.2889 17.2875C15.5556 19.05 16.0889 20.825 16.7111 22.475C17.0333 23.325 17.3889 24.1875 17.7778 25.05V56.475L3.65556 62.8375C1.9 63.625 0 62.175 0 60.05V26.2C0 24.975 0.666667 23.875 1.67778 23.4125L15.3 17.2875H15.2889ZM36.4222 41.5C37.9667 39.325 40.3889 35.7875 42.6667 31.875V63.0375L21.3333 56.175V31.875C23.6111 35.7875 26.0333 39.325 27.5778 41.5C29.8556 44.7 34.1444 44.7 36.4222 41.5ZM32 19C33.1787 19 34.3092 18.4732 35.1427 17.5355C35.9762 16.5979 36.4444 15.3261 36.4444 14C36.4444 12.6739 35.9762 11.4021 35.1427 10.4645C34.3092 9.52678 33.1787 9 32 9C30.8213 9 29.6908 9.52678 28.8573 10.4645C28.0238 11.4021 27.5556 12.6739 27.5556 14C27.5556 15.3261 28.0238 16.5979 28.8573 17.5355C29.6908 18.4732 30.8213 19 32 19Z" fill="#00B3B3"/>
</g>
<defs>
<clipPath id="clip0_75_26">
<rect width="64" height="64" fill="white"/>
</clipPath>
</defs>
</svg>
