<svg width="64" height="64" viewBox="0 0 64 64" fill="none" xmlns="http://www.w3.org/2000/svg">
<g clip-path="url(#clip0_74_22)">
<path d="M30.628 24.9879C31.068 23.6679 32.932 23.6679 33.372 24.9879L35.952 32.7359C36.5199 34.4391 37.4767 35.9866 38.7466 37.2558C40.0164 38.525 41.5645 39.4809 43.268 40.0479L51.012 42.6279C52.332 43.0679 52.332 44.9319 51.012 45.3719L43.264 47.9519C41.5608 48.5198 40.0133 49.4766 38.7441 50.7464C37.4749 52.0163 36.519 53.5644 35.952 55.2679L33.372 63.0119C33.2771 63.3009 33.0934 63.5526 32.847 63.7311C32.6007 63.9095 32.3042 64.0056 32 64.0056C31.6958 64.0056 31.3993 63.9095 31.153 63.7311C30.9066 63.5526 30.7229 63.3009 30.628 63.0119L28.048 55.2639C27.4805 53.5611 26.5243 52.0138 25.2552 50.7447C23.986 49.4755 22.4388 48.5194 20.736 47.9519L12.988 45.3719C12.699 45.277 12.4473 45.0933 12.2688 44.8469C12.0904 44.6005 11.9943 44.3041 11.9943 43.9999C11.9943 43.6957 12.0904 43.3992 12.2688 43.1528C12.4473 42.9065 12.699 42.7227 12.988 42.6279L20.736 40.0479C22.4388 39.4804 23.986 38.5242 25.2552 37.255C26.5243 35.9859 27.4805 34.4386 28.048 32.7359L30.628 24.9879ZM15.176 4.59187C15.2334 4.41865 15.3439 4.26791 15.4918 4.16107C15.6397 4.05423 15.8175 3.99672 16 3.99672C16.1825 3.99672 16.3603 4.05423 16.5082 4.16107C16.6562 4.26791 16.7666 4.41865 16.824 4.59187L18.372 9.23987C19.064 11.3119 20.688 12.9359 22.76 13.6279L27.408 15.1759C27.5812 15.2332 27.732 15.3437 27.8388 15.4916C27.9456 15.6396 28.0032 15.8174 28.0032 15.9999C28.0032 16.1823 27.9456 16.3602 27.8388 16.5081C27.732 16.656 27.5812 16.7665 27.408 16.8239L22.76 18.3719C21.7375 18.7112 20.8084 19.2846 20.0466 20.0464C19.2848 20.8082 18.7114 21.7374 18.372 22.7599L16.824 27.4079C16.7666 27.5811 16.6562 27.7318 16.5082 27.8387C16.3603 27.9455 16.1825 28.003 16 28.003C15.8175 28.003 15.6397 27.9455 15.4918 27.8387C15.3439 27.7318 15.2334 27.5811 15.176 27.4079L13.628 22.7599C13.2887 21.7374 12.7152 20.8082 11.9534 20.0464C11.1917 19.2846 10.2625 18.7112 9.24 18.3719L4.59201 16.8239C4.41878 16.7665 4.26804 16.656 4.1612 16.5081C4.05436 16.3602 3.99686 16.1823 3.99686 15.9999C3.99686 15.8174 4.05436 15.6396 4.1612 15.4916C4.26804 15.3437 4.41878 15.2332 4.59201 15.1759L9.24 13.6279C10.2625 13.2885 11.1917 12.7151 11.9534 11.9533C12.7152 11.1915 13.2887 10.2624 13.628 9.23987L15.176 4.59187ZM43.452 0.39587C43.4915 0.281975 43.5655 0.183214 43.6637 0.113316C43.7619 0.043419 43.8795 0.00585937 44 0.00585938C44.1205 0.00585938 44.2381 0.043419 44.3363 0.113316C44.4345 0.183214 44.5085 0.281975 44.548 0.39587L45.58 3.49187C46.04 4.87587 47.124 5.95987 48.508 6.41987L51.604 7.45187C51.7179 7.49136 51.8167 7.56535 51.8866 7.66356C51.9565 7.76177 51.994 7.87932 51.994 7.99987C51.994 8.12042 51.9565 8.23797 51.8866 8.33618C51.8167 8.43439 51.7179 8.50838 51.604 8.54787L48.508 9.57987C47.8266 9.80787 47.2074 10.191 46.6993 10.6991C46.1912 11.2072 45.808 11.8264 45.58 12.5079L44.548 15.6039C44.5085 15.7178 44.4345 15.8165 44.3363 15.8864C44.2381 15.9563 44.1205 15.9939 44 15.9939C43.8795 15.9939 43.7619 15.9563 43.6637 15.8864C43.5655 15.8165 43.4915 15.7178 43.452 15.6039L42.42 12.5079C42.192 11.8264 41.8088 11.2072 41.3007 10.6991C40.7926 10.191 40.1735 9.80787 39.492 9.57987L36.4 8.54787C36.2861 8.50838 36.1873 8.43439 36.1175 8.33618C36.0476 8.23797 36.01 8.12042 36.01 7.99987C36.01 7.87932 36.0476 7.76177 36.1175 7.66356C36.1873 7.56535 36.2861 7.49136 36.4 7.45187L39.496 6.41987C40.88 5.95987 41.964 4.87587 42.424 3.49187L43.452 0.39587Z" fill="#00B3B3"/>
</g>
<defs>
<clipPath id="clip0_74_22">
<rect width="64" height="64" fill="white"/>
</clipPath>
</defs>
</svg>
