<svg width="16" height="16" viewBox="0 0 16 16" fill="none" xmlns="http://www.w3.org/2000/svg">
<path d="M7.99998 5.83334C7.42534 5.83334 6.87424 6.06162 6.46792 6.46795C6.06159 6.87427 5.83331 7.42537 5.83331 8.00001C5.83331 8.57465 6.06159 9.12575 6.46792 9.53207C6.87424 9.9384 7.42534 10.1667 7.99998 10.1667C8.57462 10.1667 9.12572 9.9384 9.53204 9.53207C9.93837 9.12575 10.1666 8.57465 10.1666 8.00001C10.1666 7.42537 9.93837 6.87427 9.53204 6.46795C9.12572 6.06162 8.57462 5.83334 7.99998 5.83334Z" fill="#0F97C1"/>
<path fill-rule="evenodd" clip-rule="evenodd" d="M4.51336 2.05468C6.8307 1.79781 9.16934 1.79781 11.4867 2.05468C12.7527 2.19601 13.7734 3.19268 13.922 4.46335C14.1968 6.81312 14.1968 9.18691 13.922 11.5367C13.7734 12.8073 12.7527 13.804 11.4874 13.946C9.16979 14.203 6.83092 14.203 4.51336 13.946C3.24736 13.804 2.22669 12.8073 2.07802 11.5373C1.80318 9.18736 1.80318 6.81334 2.07802 4.46335C2.22669 3.19268 3.24736 2.19601 4.51336 2.05468ZM11.3334 4.00001C11.1565 4.00001 10.987 4.07025 10.862 4.19528C10.7369 4.3203 10.6667 4.48987 10.6667 4.66668C10.6667 4.84349 10.7369 5.01306 10.862 5.13808C10.987 5.26311 11.1565 5.33335 11.3334 5.33335C11.5102 5.33335 11.6797 5.26311 11.8048 5.13808C11.9298 5.01306 12 4.84349 12 4.66668C12 4.48987 11.9298 4.3203 11.8048 4.19528C11.6797 4.07025 11.5102 4.00001 11.3334 4.00001ZM4.83336 8.00001C4.83336 7.16016 5.16699 6.35471 5.76085 5.76084C6.35472 5.16698 7.16017 4.83335 8.00002 4.83335C8.83987 4.83335 9.64533 5.16698 10.2392 5.76084C10.8331 6.35471 11.1667 7.16016 11.1667 8.00001C11.1667 8.83987 10.8331 9.64532 10.2392 10.2392C9.64533 10.833 8.83987 11.1667 8.00002 11.1667C7.16017 11.1667 6.35472 10.833 5.76085 10.2392C5.16699 9.64532 4.83336 8.83987 4.83336 8.00001Z" fill="#0F97C1"/>
</svg>
