<svg width="16" height="16" viewBox="0 0 16 16" fill="none" xmlns="http://www.w3.org/2000/svg">
<path d="M1.00043 3.47501C1.52543 3.47501 2.32543 3.47501 2.77543 3.47501C3.00043 3.47501 3.17543 3.62501 3.25043 3.82501C3.47543 4.47501 3.97543 5.90001 4.55043 6.87501C5.32543 8.15001 5.82543 8.62501 6.15043 8.57501C6.47543 8.50001 6.37543 7.65001 6.37543 6.97501C6.37543 6.30001 6.45043 5.15001 6.12543 4.62501L5.62543 3.90001C5.50043 3.72501 5.62543 3.50001 5.82543 3.50001H8.67543C8.95043 3.50001 9.17543 3.72501 9.17543 4.00001V7.62501C9.17543 7.62501 9.30043 8.27501 10.0004 7.60001C10.7004 6.92501 11.4504 5.67501 12.0754 4.40001L12.3254 3.80001C12.4004 3.62501 12.5754 3.50001 12.7754 3.50001H14.6254C14.9754 3.50001 15.2254 3.85001 15.1004 4.17501L14.9004 4.70001C14.9004 4.70001 14.2254 6.05001 13.5254 7.00001C12.8254 7.97501 12.6754 8.20001 12.7754 8.45001C12.8754 8.70001 14.6754 10.375 15.1254 11.175C15.2504 11.4 15.3504 11.6 15.4504 11.775C15.6254 12.1 15.3754 12.525 15.0004 12.525H12.9004C12.7254 12.525 12.5504 12.425 12.4754 12.275L12.2754 11.95C12.2754 11.95 11.0004 10.45 10.2254 9.97501C9.42543 9.52501 9.45043 10.175 9.45043 10.175V11.5C9.45043 12.05 9.00043 12.5 8.45043 12.5H7.95043C7.95043 12.5 5.20043 12.5 3.00043 9.22501C1.27542 6.67501 0.700425 5.02501 0.500425 4.07501C0.450425 3.77501 0.675425 3.47501 1.00043 3.47501Z" fill="#0F97C1"/>
</svg>
