<svg width="16" height="16" viewBox="0 0 16 16" fill="none" xmlns="http://www.w3.org/2000/svg">
<path d="M8.00066 1.33334C11.6827 1.33334 14.6673 4.31801 14.6673 8.00001C14.6673 11.682 11.6827 14.6667 8.00066 14.6667C6.82251 14.6686 5.6651 14.3568 4.64733 13.7633L1.33666 14.6667L2.23799 11.3547C1.64406 10.3366 1.33203 9.17868 1.33399 8.00001C1.33399 4.31801 4.31866 1.33334 8.00066 1.33334ZM5.72866 4.86668L5.59533 4.87201C5.50901 4.87727 5.42465 4.89994 5.34733 4.93868C5.27501 4.97963 5.20899 5.03083 5.15133 5.09068C5.07133 5.16601 5.02599 5.23134 4.97733 5.29468C4.73074 5.61528 4.59798 6.00889 4.59999 6.41334C4.60133 6.74001 4.68666 7.05801 4.81999 7.35534C5.09266 7.95668 5.54133 8.59334 6.13333 9.18334C6.27599 9.32534 6.41599 9.46801 6.56666 9.60068C7.30225 10.2483 8.17883 10.7154 9.12666 10.9647L9.50533 11.0227C9.62866 11.0293 9.75199 11.02 9.87599 11.014C10.0702 11.004 10.2597 10.9514 10.4313 10.86C10.5186 10.815 10.6038 10.7661 10.6867 10.7133C10.6867 10.7133 10.7153 10.6947 10.77 10.6533C10.86 10.5867 10.9153 10.5393 10.99 10.4613C11.0453 10.404 11.0933 10.3367 11.13 10.26C11.182 10.1513 11.234 9.94401 11.2553 9.77134C11.2713 9.63934 11.2667 9.56734 11.2647 9.52268C11.262 9.45134 11.2027 9.37734 11.138 9.34601L10.75 9.17201C10.75 9.17201 10.17 8.91934 9.81533 8.75801C9.77821 8.74181 9.73845 8.73254 9.69799 8.73068C9.65238 8.72599 9.60629 8.73112 9.56283 8.74573C9.51936 8.76033 9.47953 8.78407 9.44599 8.81534C9.44266 8.81401 9.39799 8.85201 8.91599 9.43601C8.88833 9.47318 8.85022 9.50128 8.80653 9.51671C8.76284 9.53215 8.71554 9.53423 8.67066 9.52268C8.62723 9.51103 8.58468 9.49633 8.54333 9.47868C8.46066 9.44401 8.43199 9.43068 8.37533 9.40668C7.99271 9.23971 7.63845 9.01411 7.32533 8.73801C7.24133 8.66468 7.16333 8.58468 7.08333 8.50734C6.82105 8.25616 6.59248 7.97201 6.40333 7.66201L6.36399 7.59868C6.33574 7.55612 6.3129 7.51021 6.29599 7.46201C6.27066 7.36401 6.33666 7.28534 6.33666 7.28534C6.33666 7.28534 6.49866 7.10801 6.57399 7.01201C6.64733 6.91868 6.70933 6.82801 6.74933 6.76334C6.82799 6.63668 6.85266 6.50668 6.81133 6.40601C6.62466 5.95001 6.43133 5.49601 6.23266 5.04534C6.19333 4.95601 6.07666 4.89201 5.97066 4.87934C5.93466 4.87534 5.89866 4.87134 5.86266 4.86868C5.77313 4.86423 5.68342 4.86512 5.59399 4.87134L5.72866 4.86668Z" fill="#0F97C1"/>
</svg>
