<svg width="100" height="100" viewBox="0 0 100 100" fill="none" xmlns="http://www.w3.org/2000/svg">
<g clip-path="url(#clip0_2_5)">
<path d="M99.6875 0.3125H0.3125V99.6875H99.6875V0.3125Z" fill="white" stroke="#12857B"/>
<path d="M0.3125 13.75V20" stroke="white"/>
<path d="M0.3125 13.75V20" stroke="white"/>
<path d="M0.3125 26.25V32.5" stroke="white"/>
<path d="M0.3125 26.25V32.5" stroke="white"/>
<path d="M0.3125 38.75V45" stroke="white"/>
<path d="M0.3125 38.75V45" stroke="white"/>
<path d="M0.3125 51.25V57.5" stroke="white"/>
<path d="M0.3125 51.25V57.5" stroke="white"/>
<path d="M0.3125 63.75V70" stroke="white"/>
<path d="M0.3125 63.75V70" stroke="white"/>
<path d="M48.75 0.3125H55" stroke="white"/>
<path d="M48.75 0.3125H55" stroke="white"/>
<path d="M61.25 0.3125H67.5" stroke="white"/>
<path d="M61.25 0.3125H67.5" stroke="white"/>
<path d="M73.75 0.3125H80" stroke="white"/>
<path d="M73.75 0.3125H80" stroke="white"/>
<path d="M65.0519 68.87C65.11 68.8881 65.1687 68.8963 65.2269 68.8963C65.4869 68.8963 65.7275 68.7275 65.8069 68.465L66.1219 67.4175C66.2181 67.0975 66.0362 66.7594 65.7162 66.6631C65.3969 66.5663 65.0581 66.7475 64.9612 67.0687L64.6462 68.1156C64.55 68.4363 64.7312 68.7744 65.0519 68.87Z" fill="#308679"/>
<path d="M39.8731 70.0281C39.9035 69.6956 39.6579 69.4006 39.3246 69.37C38.9858 69.3369 38.6966 69.585 38.6659 69.9181C38.3105 73.8031 36.1091 77.7525 34.1676 81.2381C34.1365 81.2938 34.1062 81.3475 34.0755 81.4031C34.4806 77.9931 33.9281 75.0519 32.5427 73.4213C31.7971 72.5431 30.835 72.0794 29.7602 72.0794C29.7581 72.0794 29.7558 72.0794 29.7533 72.0794C26.7927 72.0844 23.8388 76.0944 22.5626 79.865C22.4554 80.1819 22.6255 80.5256 22.9426 80.6325C23.2585 80.74 23.6032 80.57 23.7105 80.2531C25.0087 76.4181 27.7205 73.2944 29.7557 73.2913C29.7573 73.2913 29.7586 73.2913 29.7602 73.2913C30.4779 73.2913 31.1036 73.5988 31.6193 74.2056C32.8816 75.6913 33.315 78.7275 32.7515 82.1294C32.6966 82.4594 32.92 82.7713 33.2499 82.8263C33.2625 82.8281 33.2754 82.8275 33.2879 82.8294C31.7615 85.6306 30.6084 88.0906 30.8483 90.1731C30.94 90.9681 31.5148 91.7088 32.1573 91.8588C32.2038 91.87 32.2506 91.875 32.2963 91.875C32.5721 91.875 32.8226 91.6869 32.888 91.4075C32.964 91.0819 32.764 90.7569 32.4381 90.6806C32.3411 90.6469 32.0927 90.3869 32.052 90.035C31.8128 87.9538 33.4708 84.9781 35.2262 81.8281C37.2264 78.2381 39.4935 74.1694 39.8731 70.0281Z" fill="#308679"/>
<path d="M74.7631 81.875C74.585 82.6575 74.4419 83.2894 74.2706 83.9675C73.5231 86.9263 71.9444 88.4175 70.0481 87.9575C68.2975 87.5331 66.71 85.4631 67.2069 83.3294C67.975 80.0269 70.8456 78.5231 75.8531 77.2675C75.3156 79.4369 75.005 80.8069 74.7631 81.875ZM38.9861 81.6712C38.7708 81.5887 38.5579 80.6994 38.8181 79.7913C38.9469 79.2388 39.5124 77.6506 40.5754 76.9525C41.3732 76.4281 42.1858 76.3131 42.7303 76.3081L42.6184 76.6913C40.0992 81.8125 38.9954 81.6744 38.9861 81.6712ZM87.14 74.3319C87.0737 74.0031 86.7525 73.79 86.4275 73.8556C85.3287 74.0744 84.2719 74.2788 83.2594 74.475C81.1662 74.8806 79.2481 75.2531 77.5112 75.6381C77.8731 74.2194 78.3125 72.5275 78.8556 70.4856C78.8563 70.4838 78.8562 70.4825 78.8569 70.4812C78.8575 70.4787 78.8581 70.4763 78.8588 70.4738C78.8619 70.4631 78.8619 70.4525 78.8644 70.4425C78.87 70.4144 78.8756 70.3862 78.8775 70.3581C78.8787 70.3419 78.8769 70.325 78.8769 70.3088C78.8763 70.2863 78.8769 70.2638 78.8737 70.2413C78.8713 70.2219 78.8662 70.2037 78.8619 70.1856C78.8575 70.1662 78.8537 70.1469 78.8481 70.1281C78.8419 70.11 78.8331 70.0931 78.8256 70.0763C78.8181 70.0575 78.8106 70.0387 78.8013 70.0212C78.7919 70.005 78.7806 69.9906 78.7694 69.9756C78.7581 69.9587 78.7475 69.9412 78.7344 69.9256C78.7212 69.9106 78.7056 69.8969 78.6906 69.8831C78.6775 69.87 78.6656 69.8562 78.6506 69.8444C78.6306 69.8281 78.6081 69.8156 78.5863 69.8019C78.575 69.795 78.565 69.7869 78.5531 69.7806C78.5519 69.78 78.5494 69.7794 78.5494 69.7794C78.53 69.7694 78.5088 69.7631 78.4888 69.755C78.47 69.7481 78.4519 69.7394 78.4338 69.7344C78.4325 69.7337 78.4313 69.7325 78.4294 69.7325C78.4162 69.7287 78.4031 69.7287 78.39 69.7262C78.3644 69.7212 78.3388 69.7156 78.3138 69.7137C78.2994 69.7131 78.2863 69.715 78.2731 69.715C78.2469 69.715 78.2206 69.715 78.195 69.7181C78.1813 69.72 78.1688 69.7244 78.1562 69.7262C78.1306 69.7312 78.1056 69.7363 78.0806 69.745C78.0694 69.7488 78.0581 69.7544 78.0469 69.7594C78.0219 69.7687 77.9975 69.7794 77.9744 69.7919C77.9638 69.7987 77.9544 69.8062 77.9444 69.8125C77.9219 69.8269 77.9 69.8419 77.8794 69.8588C77.8681 69.8681 77.8587 69.88 77.8481 69.8906C77.8306 69.9075 77.8137 69.9231 77.7987 69.9425C77.7862 69.9581 77.7769 69.9756 77.7663 69.9919C77.7569 70.0075 77.7444 70.0219 77.7362 70.0381C75.595 74.1544 74.675 74.1569 74.675 74.1588C74.4813 74.045 74.3019 73.1031 74.5781 72.1394C74.5825 72.1225 74.9994 70.4769 76.2537 69.5944C77.9875 68.3737 79.7456 68.9881 79.8169 69.0137C80.1319 69.1294 80.4794 68.9706 80.5962 68.6569C80.7125 68.3437 80.5531 67.9944 80.24 67.8781C80.1419 67.8413 77.8244 67.0062 75.5563 68.6031C74.5219 69.3312 73.9425 70.4044 73.6525 71.1106C72.3194 73.715 71.52 74.585 71.2531 74.7837C71.0944 74.29 71.1413 72.885 71.4325 71.8725L71.9956 69.875C72.0031 69.8475 72.0094 69.82 72.0131 69.7919C72.0369 69.6169 71.9675 69.405 71.8506 69.2731C71.6106 69.0019 71.2238 68.975 70.8744 68.975C70.1 68.975 69.2787 70.1706 68.1606 72.0825L68.6356 70.0387C68.71 69.7125 68.5069 69.3875 68.1812 69.3119C67.8562 69.2381 67.5294 69.4406 67.4544 69.7662L67.3994 70.0037C65.5444 73.9875 64.4481 75.6375 64.0144 76.1156C63.9856 75.4725 64.1456 74.1694 64.5737 72.685L65.0675 71.0437C65.1638 70.7231 64.9825 70.3856 64.6619 70.2887C64.3406 70.1925 64.0031 70.3737 63.9069 70.695L63.5469 71.89C61.4497 76.4438 60.4698 77.0538 60.261 77.1344C60.0013 76.7906 59.8866 75.0944 60.4012 73.2981L60.6415 72.455L62.5994 71.9769C62.925 71.8969 63.1238 71.5694 63.045 71.2444C62.965 70.9194 62.6375 70.7187 62.3124 70.8L61.0232 71.1144L62.1642 67.1094C62.2563 66.7875 62.0697 66.4525 61.7478 66.3606C61.4271 66.2694 61.0906 66.4556 60.9989 66.7775L59.6689 71.4456L58.1785 71.8094C57.8529 71.8887 57.6542 72.2169 57.7334 72.5419C57.8008 72.8188 58.0488 73.0044 58.3214 73.0044C58.3691 73.0044 58.4176 72.9981 58.4656 72.9863L59.2868 72.7856L59.2359 72.9656C59.1712 73.1913 59.1074 73.4612 59.0497 73.7525C57.5173 76.8675 56.7353 77.7131 56.4384 77.94C56.2959 77.4538 56.3451 76.15 56.6279 75.1669L57.1913 73.1688C57.1954 73.1537 57.199 73.1388 57.2022 73.1231C57.2414 72.9281 57.2071 72.6413 56.9942 72.4206C56.7741 72.1919 56.4509 72.1106 56.0325 72.1781C55.3641 72.2863 54.4387 73.43 53.5162 74.8763L55.0801 69.3237C55.171 69.0019 54.9836 68.6669 54.6617 68.5769C54.3398 68.4862 54.0045 68.6731 53.9141 68.9956L52.6236 73.5769C48.8923 80.3019 47.3203 80.01 47.1539 79.9538C46.7423 79.815 46.5173 78.9625 46.6062 78.3494C46.6773 77.8563 47.3655 75.8294 48.7541 74.9237C48.9181 74.8162 49.1326 74.8119 49.1823 74.8506C49.2009 74.8656 49.2659 75.0544 49.0971 75.5319C48.9856 75.8475 49.1512 76.1937 49.4671 76.3044C49.7833 76.4156 50.1283 76.2506 50.2401 75.9344C50.6707 74.7125 50.2308 74.1338 49.9303 73.8975C49.3867 73.4706 48.5942 73.58 48.0921 73.9087C46.7544 74.7812 45.9531 76.3887 45.6037 77.4256C44.2457 79.9725 43.5486 80.5381 43.3273 80.6612C43.1701 80.3206 43.1371 79.2444 43.4024 78.3219L44.3161 75.2094C44.4101 74.8881 44.2264 74.5519 43.9052 74.4575C43.5834 74.3644 43.2473 74.5469 43.1532 74.8681L43.0833 75.1056C42.3821 75.0606 41.1398 75.1312 39.9098 75.94C38.2284 77.045 37.6613 79.4175 37.6459 79.4869C37.2764 80.7706 37.5175 82.4038 38.5503 82.8019C38.7026 82.8606 38.8592 82.89 39.02 82.89C39.8901 82.89 40.8816 82.0213 42.015 80.2713C42.0841 80.9813 42.3224 81.6081 42.8729 81.8312C43.0041 81.8837 43.1371 81.9106 43.2731 81.9106C43.942 81.9106 44.6824 81.2581 45.5932 79.8544C45.804 80.4156 46.1796 80.9044 46.7673 81.1019C46.9451 81.1619 47.1288 81.1919 47.3174 81.1919C48.2238 81.1919 49.2602 80.5006 50.4404 79.1044C50.6186 78.8938 50.7999 78.6669 50.9849 78.4231C51.1444 78.2131 51.3084 77.9475 51.4744 77.655L50.9332 79.5756C50.8488 79.8769 51.0063 80.1925 51.2984 80.3056C51.3698 80.3331 51.4434 80.3463 51.5164 80.3463C51.7402 80.3456 51.9535 80.2212 52.0589 80.0106C53.2844 77.55 54.8733 74.8369 55.7551 73.7981L55.4626 74.835C55.4521 74.8719 54.4872 78.5869 55.9885 79.1656C56.4897 79.3588 57.1081 79.2581 58.1409 77.8069C58.3788 77.4725 58.6111 77.02 58.8643 76.4844C58.9516 77.3469 59.2302 78.0631 59.8446 78.2906C59.9698 78.3375 60.0954 78.3594 60.2222 78.3594C60.7073 78.3594 61.2049 78.0344 61.7037 77.4906C62.0846 77.0763 62.4478 76.4994 62.8019 75.8344C62.8025 76.6456 62.98 77.3119 63.5063 77.5081C63.6125 77.5481 63.7231 77.5756 63.8438 77.5756C64.1031 77.5756 64.4081 77.4487 64.8125 77.0319C65.2312 76.5987 65.7175 75.7725 66.3719 74.4663L65.9181 76.4362C65.8481 76.7394 66.0194 77.0456 66.3137 77.1456C66.3781 77.1675 66.4438 77.1781 66.5088 77.1781C66.7394 77.1781 66.9587 77.045 67.0594 76.8244C68.2006 74.3275 69.7062 71.56 70.5456 70.5525L70.2675 71.5406C70.0488 72.3 69.4581 75.4806 70.8069 76.0006C71.1919 76.1494 71.6437 76.1269 72.2944 75.4656C72.5969 75.1581 72.9206 74.6312 73.2981 73.9162C73.4169 74.5394 73.6981 75.0731 74.2225 75.2825C74.3712 75.3419 74.5231 75.3713 74.6794 75.3713C75.2775 75.3713 75.9356 74.9287 76.6731 74.0294C76.495 74.7219 76.3319 75.3588 76.1837 75.945C70.4537 77.3275 66.9644 79.025 66.0269 83.0544C65.355 85.9406 67.4569 88.5763 69.7625 89.1356C70.0656 89.2088 70.3794 89.2481 70.6994 89.2481C72.5225 89.2481 74.5125 87.9581 75.4456 84.2644C75.6194 83.5762 75.7644 82.9356 75.9438 82.1431C76.2075 80.9838 76.5506 79.4681 77.18 76.9506C79.0294 76.5294 81.1325 76.1219 83.49 75.665C84.5044 75.4681 85.5631 75.2631 86.6631 75.0437C86.9912 74.9788 87.205 74.66 87.14 74.3319Z" fill="#308679"/>
<path d="M58.0574 59.6059L60.6767 50.6332C60.6759 50.6292 60.6751 50.6251 60.6747 50.6215C60.659 50.6469 60.6436 50.6699 60.6275 50.695C59.5062 52.4758 58.6286 53.3026 57.868 53.3026C57.7311 53.3026 57.5974 53.2759 57.4661 53.2226C56.8097 52.9569 56.5945 52.0949 56.586 51.1785C55.096 53.6532 54.1811 54.2489 53.5409 54.2489C53.3943 54.2489 53.2622 54.2179 53.1411 54.171C51.8571 53.6758 52.1539 50.9725 52.4867 49.8153L53.5813 46.0848C53.6698 45.7855 53.9844 45.6143 54.2825 45.7019C54.5818 45.7896 54.7531 46.1034 54.6654 46.4027L53.5716 50.1303C53.2045 51.4071 53.2954 52.8563 53.5446 53.1096C53.7037 53.0781 54.7462 52.6673 57.3094 47.4408C57.328 47.4032 57.3486 47.3648 57.4015 47.2473L57.9649 45.3267C58.0526 45.0274 58.3672 44.8561 58.6657 44.9438C58.965 45.0318 59.1362 45.3457 59.0486 45.6446L57.9548 49.3722C57.5909 50.6376 57.6935 51.9047 57.8882 52.1624C58.0574 52.1127 58.8976 51.6903 60.8165 48.1023C60.846 47.9706 60.8762 47.8459 60.907 47.7384L63.425 39.1579C63.5125 38.8586 63.825 38.6869 64.1262 38.7749C64.1294 38.7762 64.1331 38.7778 64.1369 38.7794L64.8075 36.4799L67.4956 27.4018L68.275 24.7716C66.5794 19.8746 64.0275 15.2551 61.3985 11.9399L45.0614 67.9944L43.8989 71.9825C53.3216 62.5669 68.19 58.1269 69.27 62.9731C69.9906 61.3044 70.4462 60.2021 71.1331 58.0433C71.6006 56.573 71.8406 55.2167 72.0219 54.1238C71.3094 54.1964 70.5731 54.3152 69.8294 54.4784C65.8856 55.3456 61.4127 57.3251 58.0574 59.6059Z" fill="#42BAB2"/>
<path d="M71.1575 44.7589C71.4588 44.0411 71.5175 43.4438 71.3163 43.1606C71.3094 43.1586 71.3006 43.1574 71.2906 43.1574C71.155 43.1574 70.7425 43.3613 70.23 44.0411C69.5531 44.9354 69.0106 46.2307 69.01 47.4658C69.7869 46.9743 70.6931 45.8676 71.1575 44.7589Z" fill="#308679"/>
<path d="M79.3119 47.0067C79.255 47.7418 78.8806 48.4321 78.2856 48.9006C77.8244 49.2637 77.2625 49.4524 76.7069 49.4524C76.3613 49.4524 76.0175 49.3792 75.7031 49.2298C74.8706 48.8347 74.3831 48.0015 74.3644 46.9441C74.3594 46.6327 74.6075 46.3758 74.9188 46.3706C75.2444 46.3665 75.4869 46.6133 75.4925 46.9247C75.5031 47.5467 75.75 48.0036 76.1863 48.2107C76.6238 48.4184 77.1738 48.3412 77.5881 48.0144C77.9363 47.7402 78.1544 47.3407 78.1875 46.9186C78.225 46.4416 78.0269 45.9545 77.6144 45.5094C76.9681 44.8127 75.6238 43.3627 76.4188 41.8234C76.7981 41.0891 77.6413 40.7777 78.3838 41.1C79.0438 41.3864 79.5281 42.1841 79.1225 43.3211C79.0188 43.6147 78.6969 43.7674 78.4019 43.6632C78.1088 43.5586 77.9556 43.2358 78.0606 42.9426C78.2056 42.5339 78.1588 42.2321 77.935 42.1348C77.8013 42.0766 77.555 42.0831 77.4213 42.3416C77.1106 42.9426 77.3969 43.6155 78.4419 44.7424C79.24 45.6043 79.3556 46.4493 79.3119 47.0067ZM73.915 44.1717C73.6156 44.0861 73.4419 43.7738 73.5275 43.4746L74.2338 41.0034C74.3194 40.7037 74.6319 40.5305 74.9313 40.6161C75.23 40.7017 75.4038 41.0135 75.3181 41.3132L74.6119 43.7844C74.5419 44.0324 74.3156 44.1939 74.07 44.1939C74.0188 44.1939 73.9663 44.1866 73.915 44.1717ZM68.2919 39.4767L67.8244 41.0701C67.7519 41.3165 67.5269 41.476 67.2825 41.476C67.23 41.476 67.1769 41.4684 67.1231 41.4526C66.8244 41.3649 66.6531 41.0511 66.7406 40.7522L67.2081 39.1588C67.2963 38.8595 67.6088 38.6879 67.9094 38.7759C68.2081 38.864 68.3794 39.1778 68.2919 39.4767ZM70.4975 17.2647L68.2744 24.7725L67.495 27.4027L64.8069 36.4809L64.1356 38.7804C64.1413 38.7832 64.1469 38.7852 64.1531 38.7876C64.4338 38.8866 64.5925 39.1875 64.5075 39.4767L61.9907 48.0544C61.6231 49.3316 61.7145 50.7804 61.964 51.0341C62.0323 51.0199 62.2638 50.9399 62.7119 50.431C63.1431 49.9415 63.7738 49.0553 64.6575 47.4393C64.6881 47.3206 64.7238 47.2042 64.7488 47.1166L65.8438 43.3861C65.9319 43.0868 66.2431 42.9151 66.545 43.0032C66.8438 43.0912 67.015 43.4051 66.9269 43.7039L65.8331 47.4316C65.7706 47.6651 65.7544 47.7402 65.7388 47.8157C65.4875 48.983 65.5813 50.1797 65.8063 50.4104C65.9213 50.3817 66.5506 50.1212 67.9006 47.8646C67.7238 45.5042 69.2269 43.0068 70.4756 42.2701C71.3025 41.7826 71.9269 42.0726 72.2363 42.5064C72.6844 43.1369 72.6713 44.0671 72.1988 45.1956C71.6331 46.5446 70.405 48.0847 69.1969 48.6417C69.2344 48.7496 69.2781 48.8554 69.3275 48.9592C69.4169 49.1454 69.6619 49.5775 70.0088 49.5775C70.01 49.5775 70.0113 49.5775 70.0113 49.5775C70.2256 49.5759 71.005 49.3869 72.0919 47.0257C72.2225 46.7425 72.5588 46.6186 72.8413 46.749C73.1244 46.8791 73.2488 47.2147 73.1181 47.4979C72.1413 49.6187 71.1 50.6984 70.0213 50.7069C70.0175 50.7069 70.0131 50.7069 70.0088 50.7069C69.3125 50.7069 68.6938 50.2484 68.3094 49.4475C68.2988 49.4253 68.2919 49.4019 68.2813 49.3792C67.2969 50.8502 66.4981 51.5474 65.7944 51.5478C65.6488 51.5478 65.5069 51.5175 65.3688 51.4586C64.84 51.2327 64.5913 50.6201 64.5031 49.9039C63.5988 51.2711 62.8444 51.9961 62.1833 52.1383C62.1026 52.1557 62.023 52.1682 61.9451 52.1682C61.8061 52.1682 61.672 52.1411 61.5411 52.0874C61.029 51.8782 60.7769 51.3099 60.6759 50.6342L58.0566 59.6069C61.4119 57.326 65.885 55.3466 69.8294 54.4794C70.5719 54.3162 71.3081 54.1974 72.0213 54.1247C75.6031 53.762 78.5906 54.5969 78.7344 57.1459C78.7344 57.1459 79.8088 54.445 80.3831 51.7271C84.4731 32.3716 75.08 22.7199 70.4975 17.2647Z" fill="#308679"/>
<path d="M58.9951 9.50838C55.3475 13.646 48.0626 14.9648 40.3504 16.3611C27.6161 18.6661 13.1837 21.2786 12.5005 37.8783C12.4871 38.2067 12.743 38.4846 13.0712 38.4983C13.3962 38.5076 13.6779 38.2523 13.6909 37.9276C14.3346 22.2811 27.6674 19.8678 40.5613 17.5336C47.4536 16.2859 53.9629 15.1073 58.1364 11.9193L58.2588 11.8256L58.216 11.9734C56.0034 19.5374 48.7929 44.1922 46.0904 53.4404C42.8256 64.6125 35.6503 68.5281 30.3691 67.4419C25.6176 66.4638 23.0308 61.8751 23.7799 55.7528C23.8196 55.4268 23.5869 55.1291 23.2608 55.0891C23.2367 55.0863 23.2122 55.0847 23.1885 55.0847C22.8877 55.0847 22.6344 55.3028 22.5974 55.6081C21.9174 61.1675 23.9826 67.3438 30.1296 68.6088C30.7658 68.74 31.4278 68.8063 32.0967 68.8063C35.0104 68.8063 38.0159 67.5494 40.5597 65.2675C43.4997 62.6306 45.8076 58.656 47.2343 53.7744C48.8394 48.2821 60.7654 7.50101 60.7654 7.50101L58.9951 9.50838Z" fill="#42BAB2"/>
</g>
<defs>
<clipPath id="clip0_2_5">
<rect width="100" height="100" fill="white"/>
</clipPath>
</defs>
</svg>
