<svg width="32" height="32" viewBox="0 0 32 32" fill="none" xmlns="http://www.w3.org/2000/svg">
<path d="M0 22.8H32V25.2H0V22.8ZM0 27.6H32V30H0V27.6ZM25.1429 8.4C24.6908 8.4 24.2489 8.54076 23.873 8.80448C23.4971 9.06819 23.2041 9.44302 23.0311 9.88156C22.8581 10.3201 22.8129 10.8027 22.9011 11.2682C22.9893 11.7338 23.207 12.1614 23.5266 12.4971C23.8463 12.8327 24.2536 13.0613 24.6969 13.1539C25.1403 13.2465 25.5999 13.199 26.0176 13.0173C26.4352 12.8357 26.7922 12.528 27.0434 12.1334C27.2945 11.7387 27.4286 11.2747 27.4286 10.8C27.4286 10.1635 27.1878 9.55303 26.7591 9.10295C26.3304 8.65286 25.7491 8.4 25.1429 8.4ZM16 15.6C15.0959 15.6 14.212 15.3185 13.4603 14.7911C12.7085 14.2636 12.1226 13.514 11.7766 12.6369C11.4306 11.7598 11.34 10.7947 11.5164 9.86357C11.6928 8.93246 12.1282 8.07718 12.7675 7.40589C13.4068 6.7346 14.2214 6.27744 15.1082 6.09223C15.9949 5.90702 16.9141 6.00208 17.7494 6.36538C18.5847 6.72868 19.2987 7.34391 19.801 8.13327C20.3033 8.92262 20.5714 9.85065 20.5714 10.8C20.5699 12.0726 20.0878 13.2925 19.2308 14.1924C18.3738 15.0922 17.212 15.5984 16 15.6ZM16 8.4C15.5479 8.4 15.106 8.54076 14.7301 8.80448C14.3542 9.06819 14.0613 9.44302 13.8883 9.88156C13.7153 10.3201 13.67 10.8027 13.7582 11.2682C13.8464 11.7338 14.0641 12.1614 14.3838 12.4971C14.7034 12.8327 15.1107 13.0613 15.5541 13.1539C15.9975 13.2465 16.457 13.199 16.8747 13.0173C17.2924 12.8357 17.6493 12.528 17.9005 12.1334C18.1517 11.7387 18.2857 11.2747 18.2857 10.8C18.2851 10.1637 18.0441 9.5536 17.6156 9.10365C17.1871 8.6537 16.606 8.40064 16 8.4ZM6.85714 8.4C6.40507 8.4 5.96315 8.54076 5.58727 8.80448C5.21138 9.06819 4.91842 9.44302 4.74542 9.88156C4.57242 10.3201 4.52715 10.8027 4.61535 11.2682C4.70354 11.7338 4.92124 12.1614 5.2409 12.4971C5.56056 12.8327 5.96784 13.0613 6.41122 13.1539C6.85461 13.2465 7.31419 13.199 7.73185 13.0173C8.14951 12.8357 8.50649 12.528 8.75764 12.1334C9.0088 11.7387 9.14286 11.2747 9.14286 10.8C9.14286 10.1635 8.90204 9.55303 8.47339 9.10295C8.04473 8.65286 7.46335 8.4 6.85714 8.4Z" fill="#0F97C1"/>
<path d="M29.7143 20H2.28571C1.67997 19.9985 1.09946 19.761 0.671137 19.3393C0.242809 18.9177 0.00150871 18.3463 0 17.75V4.25C0.00150871 3.65372 0.242809 3.08229 0.671137 2.66065C1.09946 2.23901 1.67997 2.00149 2.28571 2H29.7143C30.32 2.00149 30.9005 2.23901 31.3289 2.66065C31.7572 3.08229 31.9985 3.65372 32 4.25V17.75C31.9991 18.3465 31.758 18.9182 31.3295 19.34C30.9011 19.7618 30.3202 19.9991 29.7143 20ZM29.7143 4.25H2.28571V17.75H29.7143V4.25Z" fill="#0F97C1"/>
</svg>
